# Blender 4.2.2 LTS
# www.blender.org
mtllib projectile.mtl
o poison_shell
v 0.000000 -0.009004 -0.720317
v -0.720317 -0.009004 -0.000000
v -0.000000 -0.009004 0.720317
v 0.720317 -0.009004 -0.000000
v 0.000000 1.163285 0.000000
vn -0.0000 -1.0000 -0.0000
vn -0.6485 0.3985 -0.6485
vn -0.6485 0.3985 0.6485
vn 0.6485 0.3985 0.6485
vn 0.6485 0.3985 -0.6485
vt 0.572120 0.304698
vt 0.572120 0.306688
vt 0.570130 0.304698
vt 0.570130 0.306688
vt 0.568893 0.308010
vt 0.569631 0.306163
vt 0.571580 0.308013
vt 0.571438 0.305329
vt 0.573322 0.305967
vt 0.574252 0.307726
s 1
usemtl Elves_tower_map
f 1/1/1 4/2/1 2/3/1
f 2/3/1 4/2/1 3/4/1
f 1/5/2 2/6/2 5/7/2
f 2/6/3 3/8/3 5/7/3
f 3/8/4 4/9/4 5/7/4
f 4/9/5 1/10/5 5/7/5
